# xmcd CD database file generated by Grip 3.2.0
# 
# Track frame offsets:
#       150
#       12450
#       29335
#       42402
#       53960
#       67882
#       82750
#       96350
#       109595
#       120375
#       131865
#       145355
#       156605
#       168852
#       181850
#       199015
#       214632
#       227902
#       238345
#       253805
#       267242
#       278417
#       290832
#       303090
#       315127
#       328775
# 
# Disc length: 4572 seconds
# 
# Revision: 6
# Processed by: cddbd v1.5.1PL2 Copyright (c) Steve Scherf et al.
# Submitted via: Grip 3.2.0
# 
DISCID=7611da1a
DTITLE=Various Artist - Platinum Soul [CD2]
DYEAR=1999
DGENRE=Soul
TTITLE0=Aretha Franklin - (You Make Me Feel Like) A Natural Woman
TTITLE1=Otis Redding - Try A Little Tenderness
TTITLE2=Ben E. King - Stand By Me
TTITLE3=Sam and Dave - Hold On, I'm Coming
TTITLE4=Wilson Picket - Mustang Sally
TTITLE5=Percy Sledge - Warm And Tender Love
TTITLE6=The Drifters - On Broadway
TTITLE7=King Curtis - Memphis Soul Stew
TTITLE8=Aretha Franklin - Respect
TTITLE9=Rufus Thomas - Walkin' The Dog
TTITLE10=Eddie Floyd - Big Bird
TTITLE11=Sam and Dave - Wrap It Up
TTITLE12=R B Greaves - Take A Letter, Maria
TTITLE13=Otis Redding - I've Been Loving You Too Long (To Stop Now)
TTITLE14=Brook Benton - Rainy Night In Georgia
TTITLE15=Aretha Franklin - Spanish Harlem
TTITLE16=Wilson Picket - 634-5789
TTITLE17=The Coasters - Charlie Brown
TTITLE18=Ray Charles - The Right Time
TTITLE19=Otis Redding and Carla Thomas - Tramp
TTITLE20=The Drifters - Saturday Night At The Movies
TTITLE21=Aretha Franklin - Chain Of Fools
TTITLE22=Sam and Dave - I Thank You
TTITLE23=Otis Redding - Fa-Fa-Fa-Fa-Fa (Sad Song)
TTITLE24=Percy Sledge - Take Time To Know Her
TTITLE25=The Spinners - I'll Be Around
EXTD=
EXTT0=
EXTT1=
EXTT2=
EXTT3=
EXTT4=
EXTT5=
EXTT6=
EXTT7=
EXTT8=
EXTT9=
EXTT10=
EXTT11=
EXTT12=
EXTT13=
EXTT14=
EXTT15=
EXTT16=
EXTT17=
EXTT18=
EXTT19=
EXTT20=
EXTT21=
EXTT22=
EXTT23=
EXTT24=
EXTT25=
PLAYORDER=
